<mxfile host="app.diagrams.net" agent="Mozilla/5.0 (Windows NT 10.0; Win64; x64) AppleWebKit/537.36 (KHTML, like Gecko) Chrome/128.0.0.0 Whale/3.28.266.11 Safari/537.36" version="24.7.17">
  <diagram id="6a731a19-8d31-9384-78a2-239565b7b9f0" name="Page-1">
    <mxGraphModel dx="5455" dy="2900" grid="1" gridSize="10" guides="1" tooltips="1" connect="1" arrows="1" fold="1" page="1" pageScale="1" pageWidth="1169" pageHeight="827" background="none" math="0" shadow="0">
      <root>
        <mxCell id="0" />
        <mxCell id="1" parent="0" />
        <mxCell id="u-94jC1h6T2prdQo3YRR-79" style="edgeStyle=orthogonalEdgeStyle;rounded=0;hachureGap=4;orthogonalLoop=1;jettySize=auto;html=1;fontFamily=Architects Daughter;fontSource=https%3A%2F%2Ffonts.googleapis.com%2Fcss%3Ffamily%3DArchitects%2BDaughter;" edge="1" parent="1" source="2" target="3">
          <mxGeometry relative="1" as="geometry" />
        </mxCell>
        <mxCell id="2" value="&lt;b&gt;시작&lt;/b&gt;" style="shape=mxgraph.flowchart.terminator;strokeWidth=2;gradientColor=none;gradientDirection=north;fontStyle=0;html=1;fontFamily=d2coding;" parent="1" vertex="1">
          <mxGeometry x="260" y="10" width="120" height="30" as="geometry" />
        </mxCell>
        <mxCell id="3" value="이미지를 읽는다" style="shape=mxgraph.flowchart.data;strokeWidth=2;gradientColor=none;gradientDirection=north;fontStyle=0;html=1;fontFamily=d2coding;" parent="1" vertex="1">
          <mxGeometry x="240.5" y="130" width="159" height="80" as="geometry" />
        </mxCell>
        <mxCell id="5" value="지정된&lt;br&gt;Prefab 소환" style="shape=mxgraph.flowchart.data;strokeWidth=2;gradientColor=none;gradientDirection=north;fontStyle=0;html=1;fontFamily=d2coding;" parent="1" vertex="1">
          <mxGeometry x="240.5" y="470" width="159" height="80" as="geometry" />
        </mxCell>
        <mxCell id="28" value="맞는이미지인가?" style="shape=mxgraph.flowchart.decision;strokeWidth=2;gradientColor=none;gradientDirection=north;fontStyle=0;html=1;fontFamily=d2coding;" parent="1" vertex="1">
          <mxGeometry x="255" y="280" width="130" height="100" as="geometry" />
        </mxCell>
        <mxCell id="34" value="조작한다 /&lt;div&gt;&lt;span style=&quot;background-color: initial;&quot;&gt;버튼을 누른다&lt;/span&gt;&lt;/div&gt;" style="shape=mxgraph.flowchart.data;strokeWidth=2;gradientColor=none;gradientDirection=north;fontStyle=0;html=1;fontFamily=d2coding;" parent="1" vertex="1">
          <mxGeometry x="240.5" y="650" width="159" height="80" as="geometry" />
        </mxCell>
        <mxCell id="40" value="end" style="shape=mxgraph.flowchart.terminator;strokeWidth=2;gradientColor=none;gradientDirection=north;fontStyle=0;html=1;fontFamily=d2coding;" parent="1" vertex="1">
          <mxGeometry x="260" y="1789" width="120" height="30" as="geometry" />
        </mxCell>
        <mxCell id="u-94jC1h6T2prdQo3YRR-58" value="&lt;div&gt;IDLE&lt;/div&gt;애니메이션 재생" style="shape=mxgraph.flowchart.data;strokeWidth=2;gradientColor=none;gradientDirection=north;fontStyle=0;html=1;fontFamily=d2coding;" vertex="1" parent="1">
          <mxGeometry x="10" y="470" width="159" height="80" as="geometry" />
        </mxCell>
        <mxCell id="u-94jC1h6T2prdQo3YRR-59" value="버튼 UI 보이기" style="shape=mxgraph.flowchart.data;strokeWidth=2;gradientColor=none;gradientDirection=north;fontStyle=0;html=1;fontFamily=d2coding;" vertex="1" parent="1">
          <mxGeometry x="-110" y="290" width="159" height="80" as="geometry" />
        </mxCell>
        <mxCell id="u-94jC1h6T2prdQo3YRR-60" value="지정된 행동 실행" style="shape=mxgraph.flowchart.data;strokeWidth=2;gradientColor=none;gradientDirection=north;fontStyle=0;html=1;fontFamily=d2coding;" vertex="1" parent="1">
          <mxGeometry x="240.5" y="840" width="159" height="80" as="geometry" />
        </mxCell>
        <mxCell id="u-94jC1h6T2prdQo3YRR-90" style="edgeStyle=orthogonalEdgeStyle;rounded=0;hachureGap=4;orthogonalLoop=1;jettySize=auto;html=1;fontFamily=Architects Daughter;fontSource=https%3A%2F%2Ffonts.googleapis.com%2Fcss%3Ffamily%3DArchitects%2BDaughter;" edge="1" parent="1" source="u-94jC1h6T2prdQo3YRR-61" target="u-94jC1h6T2prdQo3YRR-78">
          <mxGeometry relative="1" as="geometry" />
        </mxCell>
        <mxCell id="u-94jC1h6T2prdQo3YRR-61" value="움직인다" style="shape=mxgraph.flowchart.data;strokeWidth=2;gradientColor=none;gradientDirection=north;fontStyle=0;html=1;fontFamily=d2coding;" vertex="1" parent="1">
          <mxGeometry x="-269" y="1080" width="159" height="80" as="geometry" />
        </mxCell>
        <mxCell id="u-94jC1h6T2prdQo3YRR-96" style="edgeStyle=orthogonalEdgeStyle;rounded=0;hachureGap=4;orthogonalLoop=1;jettySize=auto;html=1;fontFamily=Architects Daughter;fontSource=https%3A%2F%2Ffonts.googleapis.com%2Fcss%3Ffamily%3DArchitects%2BDaughter;entryX=0.91;entryY=0.536;entryDx=0;entryDy=0;entryPerimeter=0;" edge="1" parent="1" source="u-94jC1h6T2prdQo3YRR-62" target="u-94jC1h6T2prdQo3YRR-69">
          <mxGeometry relative="1" as="geometry">
            <Array as="points">
              <mxPoint x="531" y="1229" />
            </Array>
          </mxGeometry>
        </mxCell>
        <mxCell id="u-94jC1h6T2prdQo3YRR-62" value="공격" style="shape=mxgraph.flowchart.data;strokeWidth=2;gradientColor=none;gradientDirection=north;fontStyle=0;html=1;fontFamily=d2coding;" vertex="1" parent="1">
          <mxGeometry x="451.5" y="1082.25" width="159" height="80" as="geometry" />
        </mxCell>
        <mxCell id="u-94jC1h6T2prdQo3YRR-97" style="edgeStyle=orthogonalEdgeStyle;rounded=0;hachureGap=4;orthogonalLoop=1;jettySize=auto;html=1;fontFamily=Architects Daughter;fontSource=https%3A%2F%2Ffonts.googleapis.com%2Fcss%3Ffamily%3DArchitects%2BDaughter;" edge="1" parent="1" source="u-94jC1h6T2prdQo3YRR-63" target="u-94jC1h6T2prdQo3YRR-73">
          <mxGeometry relative="1" as="geometry" />
        </mxCell>
        <mxCell id="u-94jC1h6T2prdQo3YRR-63" value="스킬" style="shape=mxgraph.flowchart.data;strokeWidth=2;gradientColor=none;gradientDirection=north;fontStyle=0;html=1;fontFamily=d2coding;" vertex="1" parent="1">
          <mxGeometry x="790.5" y="1082.25" width="159" height="80" as="geometry" />
        </mxCell>
        <mxCell id="u-94jC1h6T2prdQo3YRR-64" value="구르기 /&lt;div&gt;피하기&lt;/div&gt;" style="shape=mxgraph.flowchart.data;strokeWidth=2;gradientColor=none;gradientDirection=north;fontStyle=0;html=1;fontFamily=d2coding;" vertex="1" parent="1">
          <mxGeometry x="40.5" y="1080" width="159" height="80" as="geometry" />
        </mxCell>
        <mxCell id="u-94jC1h6T2prdQo3YRR-68" value="애니메이션&lt;div&gt;재생&lt;/div&gt;" style="shape=mxgraph.flowchart.data;strokeWidth=2;gradientColor=none;gradientDirection=north;fontStyle=0;html=1;fontFamily=d2coding;" vertex="1" parent="1">
          <mxGeometry x="-359.5" y="1190" width="110" height="69" as="geometry" />
        </mxCell>
        <mxCell id="u-94jC1h6T2prdQo3YRR-69" value="애니메이션&lt;div&gt;재생&lt;/div&gt;" style="shape=mxgraph.flowchart.data;strokeWidth=2;gradientColor=none;gradientDirection=north;fontStyle=0;html=1;fontFamily=d2coding;" vertex="1" parent="1">
          <mxGeometry x="360" y="1192.25" width="110" height="69" as="geometry" />
        </mxCell>
        <mxCell id="u-94jC1h6T2prdQo3YRR-70" value="애니메이션&lt;div&gt;재생&lt;/div&gt;" style="shape=mxgraph.flowchart.data;strokeWidth=2;gradientColor=none;gradientDirection=north;fontStyle=0;html=1;fontFamily=d2coding;" vertex="1" parent="1">
          <mxGeometry x="700" y="1192.25" width="110" height="69" as="geometry" />
        </mxCell>
        <mxCell id="u-94jC1h6T2prdQo3YRR-71" value="애니메이션&lt;div&gt;재생&lt;/div&gt;" style="shape=mxgraph.flowchart.data;strokeWidth=2;gradientColor=none;gradientDirection=north;fontStyle=0;html=1;fontFamily=d2coding;" vertex="1" parent="1">
          <mxGeometry x="-50" y="1190" width="110" height="69" as="geometry" />
        </mxCell>
        <mxCell id="u-94jC1h6T2prdQo3YRR-99" style="edgeStyle=orthogonalEdgeStyle;rounded=0;hachureGap=4;orthogonalLoop=1;jettySize=auto;html=1;fontFamily=Architects Daughter;fontSource=https%3A%2F%2Ffonts.googleapis.com%2Fcss%3Ffamily%3DArchitects%2BDaughter;strokeColor=#267DFF;" edge="1" parent="1" source="u-94jC1h6T2prdQo3YRR-72" target="u-94jC1h6T2prdQo3YRR-74">
          <mxGeometry relative="1" as="geometry" />
        </mxCell>
        <mxCell id="u-94jC1h6T2prdQo3YRR-72" value="맞았는가?" style="shape=mxgraph.flowchart.decision;strokeWidth=2;gradientColor=none;gradientDirection=north;fontStyle=0;html=1;fontFamily=d2coding;" vertex="1" parent="1">
          <mxGeometry x="478.5" y="1272.25" width="105" height="84.5" as="geometry" />
        </mxCell>
        <mxCell id="u-94jC1h6T2prdQo3YRR-100" style="edgeStyle=orthogonalEdgeStyle;rounded=0;hachureGap=4;orthogonalLoop=1;jettySize=auto;html=1;fontFamily=Architects Daughter;fontSource=https%3A%2F%2Ffonts.googleapis.com%2Fcss%3Ffamily%3DArchitects%2BDaughter;strokeColor=#267DFF;" edge="1" parent="1" source="u-94jC1h6T2prdQo3YRR-73" target="u-94jC1h6T2prdQo3YRR-75">
          <mxGeometry relative="1" as="geometry" />
        </mxCell>
        <mxCell id="u-94jC1h6T2prdQo3YRR-73" value="맞았는가?" style="shape=mxgraph.flowchart.decision;strokeWidth=2;gradientColor=none;gradientDirection=north;fontStyle=0;html=1;fontFamily=d2coding;" vertex="1" parent="1">
          <mxGeometry x="817.5" y="1282.25" width="105" height="84.5" as="geometry" />
        </mxCell>
        <mxCell id="u-94jC1h6T2prdQo3YRR-74" value="&lt;div&gt;적&lt;/div&gt;데미지" style="shape=mxgraph.flowchart.data;strokeWidth=2;gradientColor=none;gradientDirection=north;fontStyle=0;html=1;fontFamily=d2coding;" vertex="1" parent="1">
          <mxGeometry x="451.5" y="1450" width="159" height="80" as="geometry" />
        </mxCell>
        <mxCell id="u-94jC1h6T2prdQo3YRR-75" value="&lt;div&gt;적&lt;/div&gt;데미지" style="shape=mxgraph.flowchart.data;strokeWidth=2;gradientColor=none;gradientDirection=north;fontStyle=0;html=1;fontFamily=d2coding;" vertex="1" parent="1">
          <mxGeometry x="790.5" y="1450" width="159" height="80" as="geometry" />
        </mxCell>
        <mxCell id="u-94jC1h6T2prdQo3YRR-77" value="위치변경" style="shape=mxgraph.flowchart.data;strokeWidth=2;gradientColor=none;gradientDirection=north;fontStyle=0;html=1;fontFamily=d2coding;" vertex="1" parent="1">
          <mxGeometry x="40.5" y="1320" width="159" height="80" as="geometry" />
        </mxCell>
        <mxCell id="u-94jC1h6T2prdQo3YRR-78" value="위치변경" style="shape=mxgraph.flowchart.data;strokeWidth=2;gradientColor=none;gradientDirection=north;fontStyle=0;html=1;fontFamily=d2coding;" vertex="1" parent="1">
          <mxGeometry x="-269" y="1320" width="159" height="80" as="geometry" />
        </mxCell>
        <mxCell id="u-94jC1h6T2prdQo3YRR-80" style="edgeStyle=orthogonalEdgeStyle;rounded=0;hachureGap=4;orthogonalLoop=1;jettySize=auto;html=1;entryX=0.5;entryY=0;entryDx=0;entryDy=0;entryPerimeter=0;fontFamily=Architects Daughter;fontSource=https%3A%2F%2Ffonts.googleapis.com%2Fcss%3Ffamily%3DArchitects%2BDaughter;" edge="1" parent="1" source="3" target="28">
          <mxGeometry relative="1" as="geometry" />
        </mxCell>
        <mxCell id="u-94jC1h6T2prdQo3YRR-81" style="edgeStyle=orthogonalEdgeStyle;rounded=0;hachureGap=4;orthogonalLoop=1;jettySize=auto;html=1;entryX=0.5;entryY=0;entryDx=0;entryDy=0;entryPerimeter=0;fontFamily=Architects Daughter;fontSource=https%3A%2F%2Ffonts.googleapis.com%2Fcss%3Ffamily%3DArchitects%2BDaughter;strokeColor=#267DFF;" edge="1" parent="1" source="28" target="5">
          <mxGeometry relative="1" as="geometry" />
        </mxCell>
        <mxCell id="u-94jC1h6T2prdQo3YRR-82" style="edgeStyle=orthogonalEdgeStyle;rounded=0;hachureGap=4;orthogonalLoop=1;jettySize=auto;html=1;entryX=0.905;entryY=0.5;entryDx=0;entryDy=0;entryPerimeter=0;fontFamily=Architects Daughter;fontSource=https%3A%2F%2Ffonts.googleapis.com%2Fcss%3Ffamily%3DArchitects%2BDaughter;" edge="1" parent="1" source="28" target="u-94jC1h6T2prdQo3YRR-59">
          <mxGeometry relative="1" as="geometry" />
        </mxCell>
        <mxCell id="u-94jC1h6T2prdQo3YRR-83" style="edgeStyle=orthogonalEdgeStyle;rounded=0;hachureGap=4;orthogonalLoop=1;jettySize=auto;html=1;entryX=0.905;entryY=0.5;entryDx=0;entryDy=0;entryPerimeter=0;fontFamily=Architects Daughter;fontSource=https%3A%2F%2Ffonts.googleapis.com%2Fcss%3Ffamily%3DArchitects%2BDaughter;exitX=0.095;exitY=0.5;exitDx=0;exitDy=0;exitPerimeter=0;" edge="1" parent="1" source="5" target="u-94jC1h6T2prdQo3YRR-58">
          <mxGeometry relative="1" as="geometry" />
        </mxCell>
        <mxCell id="u-94jC1h6T2prdQo3YRR-84" style="edgeStyle=orthogonalEdgeStyle;rounded=0;hachureGap=4;orthogonalLoop=1;jettySize=auto;html=1;entryX=0.5;entryY=0;entryDx=0;entryDy=0;entryPerimeter=0;fontFamily=Architects Daughter;fontSource=https%3A%2F%2Ffonts.googleapis.com%2Fcss%3Ffamily%3DArchitects%2BDaughter;" edge="1" parent="1" source="5" target="34">
          <mxGeometry relative="1" as="geometry" />
        </mxCell>
        <mxCell id="u-94jC1h6T2prdQo3YRR-85" style="edgeStyle=orthogonalEdgeStyle;rounded=0;hachureGap=4;orthogonalLoop=1;jettySize=auto;html=1;entryX=0.5;entryY=0;entryDx=0;entryDy=0;entryPerimeter=0;fontFamily=Architects Daughter;fontSource=https%3A%2F%2Ffonts.googleapis.com%2Fcss%3Ffamily%3DArchitects%2BDaughter;" edge="1" parent="1" source="34" target="u-94jC1h6T2prdQo3YRR-60">
          <mxGeometry relative="1" as="geometry" />
        </mxCell>
        <mxCell id="u-94jC1h6T2prdQo3YRR-86" style="edgeStyle=orthogonalEdgeStyle;rounded=0;hachureGap=4;orthogonalLoop=1;jettySize=auto;html=1;entryX=0.575;entryY=0.05;entryDx=0;entryDy=0;entryPerimeter=0;fontFamily=Architects Daughter;fontSource=https%3A%2F%2Ffonts.googleapis.com%2Fcss%3Ffamily%3DArchitects%2BDaughter;exitX=0.5;exitY=1;exitDx=0;exitDy=0;exitPerimeter=0;" edge="1" parent="1" source="u-94jC1h6T2prdQo3YRR-60" target="u-94jC1h6T2prdQo3YRR-64">
          <mxGeometry relative="1" as="geometry" />
        </mxCell>
        <mxCell id="u-94jC1h6T2prdQo3YRR-87" style="edgeStyle=orthogonalEdgeStyle;rounded=0;hachureGap=4;orthogonalLoop=1;jettySize=auto;html=1;exitX=0.095;exitY=0.5;exitDx=0;exitDy=0;exitPerimeter=0;entryX=0.572;entryY=-0.012;entryDx=0;entryDy=0;entryPerimeter=0;fontFamily=Architects Daughter;fontSource=https%3A%2F%2Ffonts.googleapis.com%2Fcss%3Ffamily%3DArchitects%2BDaughter;" edge="1" parent="1" source="u-94jC1h6T2prdQo3YRR-60" target="u-94jC1h6T2prdQo3YRR-61">
          <mxGeometry relative="1" as="geometry" />
        </mxCell>
        <mxCell id="u-94jC1h6T2prdQo3YRR-88" style="edgeStyle=orthogonalEdgeStyle;rounded=0;hachureGap=4;orthogonalLoop=1;jettySize=auto;html=1;entryX=0.582;entryY=0.034;entryDx=0;entryDy=0;entryPerimeter=0;fontFamily=Architects Daughter;fontSource=https%3A%2F%2Ffonts.googleapis.com%2Fcss%3Ffamily%3DArchitects%2BDaughter;exitX=0.905;exitY=0.5;exitDx=0;exitDy=0;exitPerimeter=0;" edge="1" parent="1" source="u-94jC1h6T2prdQo3YRR-60" target="u-94jC1h6T2prdQo3YRR-63">
          <mxGeometry relative="1" as="geometry">
            <mxPoint x="410" y="880" as="sourcePoint" />
          </mxGeometry>
        </mxCell>
        <mxCell id="u-94jC1h6T2prdQo3YRR-89" style="edgeStyle=orthogonalEdgeStyle;rounded=0;hachureGap=4;orthogonalLoop=1;jettySize=auto;html=1;entryX=0.575;entryY=-0.003;entryDx=0;entryDy=0;entryPerimeter=0;fontFamily=Architects Daughter;fontSource=https%3A%2F%2Ffonts.googleapis.com%2Fcss%3Ffamily%3DArchitects%2BDaughter;exitX=0.5;exitY=1;exitDx=0;exitDy=0;exitPerimeter=0;" edge="1" parent="1" target="u-94jC1h6T2prdQo3YRR-62">
          <mxGeometry relative="1" as="geometry">
            <mxPoint x="300" y="920" as="sourcePoint" />
            <Array as="points">
              <mxPoint x="320" y="920" />
              <mxPoint x="320" y="1000" />
              <mxPoint x="543" y="1000" />
            </Array>
          </mxGeometry>
        </mxCell>
        <mxCell id="u-94jC1h6T2prdQo3YRR-91" style="edgeStyle=orthogonalEdgeStyle;rounded=0;hachureGap=4;orthogonalLoop=1;jettySize=auto;html=1;entryX=0.905;entryY=0.5;entryDx=0;entryDy=0;entryPerimeter=0;fontFamily=Architects Daughter;fontSource=https%3A%2F%2Ffonts.googleapis.com%2Fcss%3Ffamily%3DArchitects%2BDaughter;" edge="1" parent="1" source="u-94jC1h6T2prdQo3YRR-61" target="u-94jC1h6T2prdQo3YRR-68">
          <mxGeometry relative="1" as="geometry">
            <Array as="points">
              <mxPoint x="-189" y="1225" />
            </Array>
          </mxGeometry>
        </mxCell>
        <mxCell id="u-94jC1h6T2prdQo3YRR-92" style="edgeStyle=orthogonalEdgeStyle;rounded=0;hachureGap=4;orthogonalLoop=1;jettySize=auto;html=1;entryX=0.5;entryY=0;entryDx=0;entryDy=0;entryPerimeter=0;fontFamily=Architects Daughter;fontSource=https%3A%2F%2Ffonts.googleapis.com%2Fcss%3Ffamily%3DArchitects%2BDaughter;" edge="1" parent="1" source="u-94jC1h6T2prdQo3YRR-64" target="u-94jC1h6T2prdQo3YRR-77">
          <mxGeometry relative="1" as="geometry" />
        </mxCell>
        <mxCell id="u-94jC1h6T2prdQo3YRR-93" style="edgeStyle=orthogonalEdgeStyle;rounded=0;hachureGap=4;orthogonalLoop=1;jettySize=auto;html=1;entryX=0.905;entryY=0.5;entryDx=0;entryDy=0;entryPerimeter=0;fontFamily=Architects Daughter;fontSource=https%3A%2F%2Ffonts.googleapis.com%2Fcss%3Ffamily%3DArchitects%2BDaughter;" edge="1" parent="1" source="u-94jC1h6T2prdQo3YRR-64" target="u-94jC1h6T2prdQo3YRR-71">
          <mxGeometry relative="1" as="geometry">
            <Array as="points">
              <mxPoint x="120" y="1225" />
            </Array>
          </mxGeometry>
        </mxCell>
        <mxCell id="u-94jC1h6T2prdQo3YRR-94" style="edgeStyle=orthogonalEdgeStyle;rounded=0;hachureGap=4;orthogonalLoop=1;jettySize=auto;html=1;entryX=0.5;entryY=0;entryDx=0;entryDy=0;entryPerimeter=0;fontFamily=Architects Daughter;fontSource=https%3A%2F%2Ffonts.googleapis.com%2Fcss%3Ffamily%3DArchitects%2BDaughter;" edge="1" parent="1" source="u-94jC1h6T2prdQo3YRR-62" target="u-94jC1h6T2prdQo3YRR-72">
          <mxGeometry relative="1" as="geometry" />
        </mxCell>
        <mxCell id="u-94jC1h6T2prdQo3YRR-98" style="edgeStyle=orthogonalEdgeStyle;rounded=0;hachureGap=4;orthogonalLoop=1;jettySize=auto;html=1;entryX=0.835;entryY=0.745;entryDx=0;entryDy=0;entryPerimeter=0;fontFamily=Architects Daughter;fontSource=https%3A%2F%2Ffonts.googleapis.com%2Fcss%3Ffamily%3DArchitects%2BDaughter;" edge="1" parent="1" source="u-94jC1h6T2prdQo3YRR-63" target="u-94jC1h6T2prdQo3YRR-70">
          <mxGeometry relative="1" as="geometry">
            <Array as="points">
              <mxPoint x="870" y="1244" />
            </Array>
          </mxGeometry>
        </mxCell>
        <mxCell id="u-94jC1h6T2prdQo3YRR-101" value="이미지를 읽는다" style="shape=mxgraph.flowchart.data;strokeWidth=2;gradientColor=none;gradientDirection=north;fontStyle=0;html=1;fontFamily=d2coding;" vertex="1" parent="1">
          <mxGeometry x="1400.5" y="130" width="159" height="80" as="geometry" />
        </mxCell>
        <mxCell id="u-94jC1h6T2prdQo3YRR-102" value="지정된&lt;br&gt;Prefab 소환" style="shape=mxgraph.flowchart.data;strokeWidth=2;gradientColor=none;gradientDirection=north;fontStyle=0;html=1;fontFamily=d2coding;" vertex="1" parent="1">
          <mxGeometry x="1400.5" y="470" width="159" height="80" as="geometry" />
        </mxCell>
        <mxCell id="u-94jC1h6T2prdQo3YRR-103" value="맞는이미지인가?" style="shape=mxgraph.flowchart.decision;strokeWidth=2;gradientColor=none;gradientDirection=north;fontStyle=0;html=1;fontFamily=d2coding;" vertex="1" parent="1">
          <mxGeometry x="1415" y="280" width="130" height="100" as="geometry" />
        </mxCell>
        <mxCell id="u-94jC1h6T2prdQo3YRR-104" value="&lt;div&gt;IDLE&lt;/div&gt;애니메이션 재생" style="shape=mxgraph.flowchart.data;strokeWidth=2;gradientColor=none;gradientDirection=north;fontStyle=0;html=1;fontFamily=d2coding;" vertex="1" parent="1">
          <mxGeometry x="1170" y="470" width="159" height="80" as="geometry" />
        </mxCell>
        <mxCell id="u-94jC1h6T2prdQo3YRR-105" value="버튼 UI 보이기" style="shape=mxgraph.flowchart.data;strokeWidth=2;gradientColor=none;gradientDirection=north;fontStyle=0;html=1;fontFamily=d2coding;" vertex="1" parent="1">
          <mxGeometry x="1050" y="290" width="159" height="80" as="geometry" />
        </mxCell>
        <mxCell id="u-94jC1h6T2prdQo3YRR-106" style="edgeStyle=orthogonalEdgeStyle;rounded=0;hachureGap=4;orthogonalLoop=1;jettySize=auto;html=1;entryX=0.5;entryY=0;entryDx=0;entryDy=0;entryPerimeter=0;fontFamily=Architects Daughter;fontSource=https%3A%2F%2Ffonts.googleapis.com%2Fcss%3Ffamily%3DArchitects%2BDaughter;" edge="1" source="u-94jC1h6T2prdQo3YRR-101" target="u-94jC1h6T2prdQo3YRR-103" parent="1">
          <mxGeometry relative="1" as="geometry" />
        </mxCell>
        <mxCell id="u-94jC1h6T2prdQo3YRR-107" style="edgeStyle=orthogonalEdgeStyle;rounded=0;hachureGap=4;orthogonalLoop=1;jettySize=auto;html=1;entryX=0.5;entryY=0;entryDx=0;entryDy=0;entryPerimeter=0;fontFamily=Architects Daughter;fontSource=https%3A%2F%2Ffonts.googleapis.com%2Fcss%3Ffamily%3DArchitects%2BDaughter;strokeColor=#267DFF;" edge="1" source="u-94jC1h6T2prdQo3YRR-103" target="u-94jC1h6T2prdQo3YRR-102" parent="1">
          <mxGeometry relative="1" as="geometry">
            <Array as="points">
              <mxPoint x="1480" y="400" />
              <mxPoint x="1480" y="400" />
            </Array>
          </mxGeometry>
        </mxCell>
        <mxCell id="u-94jC1h6T2prdQo3YRR-108" style="edgeStyle=orthogonalEdgeStyle;rounded=0;hachureGap=4;orthogonalLoop=1;jettySize=auto;html=1;entryX=0.905;entryY=0.5;entryDx=0;entryDy=0;entryPerimeter=0;fontFamily=Architects Daughter;fontSource=https%3A%2F%2Ffonts.googleapis.com%2Fcss%3Ffamily%3DArchitects%2BDaughter;" edge="1" source="u-94jC1h6T2prdQo3YRR-103" target="u-94jC1h6T2prdQo3YRR-105" parent="1">
          <mxGeometry relative="1" as="geometry" />
        </mxCell>
        <mxCell id="u-94jC1h6T2prdQo3YRR-109" style="edgeStyle=orthogonalEdgeStyle;rounded=0;hachureGap=4;orthogonalLoop=1;jettySize=auto;html=1;entryX=0.905;entryY=0.5;entryDx=0;entryDy=0;entryPerimeter=0;fontFamily=Architects Daughter;fontSource=https%3A%2F%2Ffonts.googleapis.com%2Fcss%3Ffamily%3DArchitects%2BDaughter;exitX=0.095;exitY=0.5;exitDx=0;exitDy=0;exitPerimeter=0;" edge="1" source="u-94jC1h6T2prdQo3YRR-102" target="u-94jC1h6T2prdQo3YRR-104" parent="1">
          <mxGeometry relative="1" as="geometry" />
        </mxCell>
        <mxCell id="u-94jC1h6T2prdQo3YRR-111" value="PLAYER를&amp;nbsp;&lt;div&gt;찾는&lt;/div&gt;" style="shape=mxgraph.flowchart.data;strokeWidth=2;gradientColor=none;gradientDirection=north;fontStyle=0;html=1;fontFamily=d2coding;" vertex="1" parent="1">
          <mxGeometry x="1400.5" y="650" width="159" height="80" as="geometry" />
        </mxCell>
        <mxCell id="u-94jC1h6T2prdQo3YRR-112" style="edgeStyle=orthogonalEdgeStyle;rounded=0;hachureGap=4;orthogonalLoop=1;jettySize=auto;html=1;exitX=1;exitY=0.5;exitDx=0;exitDy=0;exitPerimeter=0;entryX=0.905;entryY=0.5;entryDx=0;entryDy=0;entryPerimeter=0;fontFamily=Architects Daughter;fontSource=https%3A%2F%2Ffonts.googleapis.com%2Fcss%3Ffamily%3DArchitects%2BDaughter;strokeColor=#FF6161;" edge="1" parent="1" source="28" target="3">
          <mxGeometry relative="1" as="geometry">
            <Array as="points">
              <mxPoint x="510" y="330" />
              <mxPoint x="510" y="170" />
            </Array>
          </mxGeometry>
        </mxCell>
        <mxCell id="u-94jC1h6T2prdQo3YRR-113" value="찾았나?" style="shape=mxgraph.flowchart.decision;strokeWidth=2;gradientColor=none;gradientDirection=north;fontStyle=0;html=1;fontFamily=d2coding;" vertex="1" parent="1">
          <mxGeometry x="1415" y="840" width="130" height="100" as="geometry" />
        </mxCell>
        <mxCell id="u-94jC1h6T2prdQo3YRR-114" value="PLAYER에게&lt;br&gt;&lt;div&gt;간다&lt;/div&gt;" style="shape=mxgraph.flowchart.data;strokeWidth=2;gradientColor=none;gradientDirection=north;fontStyle=0;html=1;fontFamily=d2coding;" vertex="1" parent="1">
          <mxGeometry x="1400.5" y="1050" width="159" height="80" as="geometry" />
        </mxCell>
        <mxCell id="u-94jC1h6T2prdQo3YRR-128" style="edgeStyle=orthogonalEdgeStyle;rounded=0;hachureGap=4;orthogonalLoop=1;jettySize=auto;html=1;fontFamily=Architects Daughter;fontSource=https%3A%2F%2Ffonts.googleapis.com%2Fcss%3Ffamily%3DArchitects%2BDaughter;" edge="1" parent="1" source="u-94jC1h6T2prdQo3YRR-115" target="u-94jC1h6T2prdQo3YRR-116">
          <mxGeometry relative="1" as="geometry" />
        </mxCell>
        <mxCell id="u-94jC1h6T2prdQo3YRR-115" value="RayCast&lt;div&gt;공격범위탐지&lt;/div&gt;" style="shape=mxgraph.flowchart.data;strokeWidth=2;gradientColor=none;gradientDirection=north;fontStyle=0;html=1;fontFamily=d2coding;" vertex="1" parent="1">
          <mxGeometry x="1400.5" y="1240" width="159" height="80" as="geometry" />
        </mxCell>
        <mxCell id="u-94jC1h6T2prdQo3YRR-116" value="범위안에&amp;nbsp;&lt;div&gt;플레이어가&amp;nbsp;&lt;/div&gt;&lt;div&gt;있나 ?&lt;/div&gt;" style="shape=mxgraph.flowchart.decision;strokeWidth=2;gradientColor=none;gradientDirection=north;fontStyle=0;html=1;fontFamily=d2coding;" vertex="1" parent="1">
          <mxGeometry x="1415" y="1430" width="130" height="100" as="geometry" />
        </mxCell>
        <mxCell id="u-94jC1h6T2prdQo3YRR-133" style="edgeStyle=orthogonalEdgeStyle;rounded=0;hachureGap=4;orthogonalLoop=1;jettySize=auto;html=1;fontFamily=Architects Daughter;fontSource=https%3A%2F%2Ffonts.googleapis.com%2Fcss%3Ffamily%3DArchitects%2BDaughter;entryX=0.905;entryY=0.5;entryDx=0;entryDy=0;entryPerimeter=0;" edge="1" parent="1" source="u-94jC1h6T2prdQo3YRR-117" target="u-94jC1h6T2prdQo3YRR-120">
          <mxGeometry relative="1" as="geometry">
            <Array as="points">
              <mxPoint x="1480" y="1784" />
            </Array>
          </mxGeometry>
        </mxCell>
        <mxCell id="u-94jC1h6T2prdQo3YRR-117" value="PLAYER를&lt;br&gt;&lt;div&gt;공격&lt;/div&gt;" style="shape=mxgraph.flowchart.data;strokeWidth=2;gradientColor=none;gradientDirection=north;fontStyle=0;html=1;fontFamily=d2coding;" vertex="1" parent="1">
          <mxGeometry x="1400.5" y="1640" width="159" height="80" as="geometry" />
        </mxCell>
        <mxCell id="u-94jC1h6T2prdQo3YRR-118" value="맞았는가?" style="shape=mxgraph.flowchart.decision;strokeWidth=2;gradientColor=none;gradientDirection=north;fontStyle=0;html=1;fontFamily=d2coding;" vertex="1" parent="1">
          <mxGeometry x="1427.5" y="1830" width="105" height="84.5" as="geometry" />
        </mxCell>
        <mxCell id="u-94jC1h6T2prdQo3YRR-119" value="PLAYER&lt;div&gt;데미지&lt;/div&gt;" style="shape=mxgraph.flowchart.data;strokeWidth=2;gradientColor=none;gradientDirection=north;fontStyle=0;html=1;fontFamily=d2coding;" vertex="1" parent="1">
          <mxGeometry x="1400.5" y="1997.75" width="159" height="80" as="geometry" />
        </mxCell>
        <mxCell id="u-94jC1h6T2prdQo3YRR-120" value="애니메이션&lt;div&gt;재생&lt;/div&gt;" style="shape=mxgraph.flowchart.data;strokeWidth=2;gradientColor=none;gradientDirection=north;fontStyle=0;html=1;fontFamily=d2coding;" vertex="1" parent="1">
          <mxGeometry x="1264.5" y="1750" width="110" height="69" as="geometry" />
        </mxCell>
        <mxCell id="u-94jC1h6T2prdQo3YRR-122" style="edgeStyle=orthogonalEdgeStyle;rounded=0;hachureGap=4;orthogonalLoop=1;jettySize=auto;html=1;fontFamily=Architects Daughter;fontSource=https%3A%2F%2Ffonts.googleapis.com%2Fcss%3Ffamily%3DArchitects%2BDaughter;" edge="1" parent="1" source="u-94jC1h6T2prdQo3YRR-121" target="u-94jC1h6T2prdQo3YRR-101">
          <mxGeometry relative="1" as="geometry" />
        </mxCell>
        <mxCell id="u-94jC1h6T2prdQo3YRR-121" value="&lt;b&gt;시작&lt;/b&gt;" style="shape=mxgraph.flowchart.terminator;strokeWidth=2;gradientColor=none;gradientDirection=north;fontStyle=0;html=1;fontFamily=d2coding;" vertex="1" parent="1">
          <mxGeometry x="1420" y="10" width="120" height="30" as="geometry" />
        </mxCell>
        <mxCell id="u-94jC1h6T2prdQo3YRR-123" style="edgeStyle=orthogonalEdgeStyle;rounded=0;hachureGap=4;orthogonalLoop=1;jettySize=auto;html=1;entryX=0.5;entryY=0;entryDx=0;entryDy=0;entryPerimeter=0;fontFamily=Architects Daughter;fontSource=https%3A%2F%2Ffonts.googleapis.com%2Fcss%3Ffamily%3DArchitects%2BDaughter;" edge="1" parent="1" source="u-94jC1h6T2prdQo3YRR-102" target="u-94jC1h6T2prdQo3YRR-111">
          <mxGeometry relative="1" as="geometry" />
        </mxCell>
        <mxCell id="u-94jC1h6T2prdQo3YRR-124" style="edgeStyle=orthogonalEdgeStyle;rounded=0;hachureGap=4;orthogonalLoop=1;jettySize=auto;html=1;entryX=0.5;entryY=0;entryDx=0;entryDy=0;entryPerimeter=0;fontFamily=Architects Daughter;fontSource=https%3A%2F%2Ffonts.googleapis.com%2Fcss%3Ffamily%3DArchitects%2BDaughter;" edge="1" parent="1" source="u-94jC1h6T2prdQo3YRR-111" target="u-94jC1h6T2prdQo3YRR-113">
          <mxGeometry relative="1" as="geometry" />
        </mxCell>
        <mxCell id="u-94jC1h6T2prdQo3YRR-125" style="edgeStyle=orthogonalEdgeStyle;rounded=0;hachureGap=4;orthogonalLoop=1;jettySize=auto;html=1;entryX=0.5;entryY=0;entryDx=0;entryDy=0;entryPerimeter=0;fontFamily=Architects Daughter;fontSource=https%3A%2F%2Ffonts.googleapis.com%2Fcss%3Ffamily%3DArchitects%2BDaughter;strokeColor=#267DFF;" edge="1" parent="1" source="u-94jC1h6T2prdQo3YRR-113" target="u-94jC1h6T2prdQo3YRR-114">
          <mxGeometry relative="1" as="geometry" />
        </mxCell>
        <mxCell id="u-94jC1h6T2prdQo3YRR-126" style="edgeStyle=orthogonalEdgeStyle;rounded=0;hachureGap=4;orthogonalLoop=1;jettySize=auto;html=1;entryX=0.905;entryY=0.5;entryDx=0;entryDy=0;entryPerimeter=0;fontFamily=Architects Daughter;fontSource=https%3A%2F%2Ffonts.googleapis.com%2Fcss%3Ffamily%3DArchitects%2BDaughter;strokeColor=#FF6161;" edge="1" parent="1" source="u-94jC1h6T2prdQo3YRR-113" target="u-94jC1h6T2prdQo3YRR-111">
          <mxGeometry relative="1" as="geometry">
            <Array as="points">
              <mxPoint x="1620" y="890" />
              <mxPoint x="1620" y="690" />
            </Array>
          </mxGeometry>
        </mxCell>
        <mxCell id="u-94jC1h6T2prdQo3YRR-127" style="edgeStyle=orthogonalEdgeStyle;rounded=0;hachureGap=4;orthogonalLoop=1;jettySize=auto;html=1;entryX=0.5;entryY=0;entryDx=0;entryDy=0;entryPerimeter=0;fontFamily=Architects Daughter;fontSource=https%3A%2F%2Ffonts.googleapis.com%2Fcss%3Ffamily%3DArchitects%2BDaughter;" edge="1" parent="1" source="u-94jC1h6T2prdQo3YRR-114" target="u-94jC1h6T2prdQo3YRR-115">
          <mxGeometry relative="1" as="geometry" />
        </mxCell>
        <mxCell id="u-94jC1h6T2prdQo3YRR-130" style="edgeStyle=orthogonalEdgeStyle;rounded=0;hachureGap=4;orthogonalLoop=1;jettySize=auto;html=1;entryX=0.905;entryY=0.5;entryDx=0;entryDy=0;entryPerimeter=0;fontFamily=Architects Daughter;fontSource=https%3A%2F%2Ffonts.googleapis.com%2Fcss%3Ffamily%3DArchitects%2BDaughter;strokeColor=#FF6161;" edge="1" parent="1" source="u-94jC1h6T2prdQo3YRR-116" target="u-94jC1h6T2prdQo3YRR-115">
          <mxGeometry relative="1" as="geometry">
            <Array as="points">
              <mxPoint x="1620" y="1480" />
              <mxPoint x="1620" y="1280" />
            </Array>
          </mxGeometry>
        </mxCell>
        <mxCell id="u-94jC1h6T2prdQo3YRR-131" style="edgeStyle=orthogonalEdgeStyle;rounded=0;hachureGap=4;orthogonalLoop=1;jettySize=auto;html=1;entryX=0.5;entryY=0;entryDx=0;entryDy=0;entryPerimeter=0;fontFamily=Architects Daughter;fontSource=https%3A%2F%2Ffonts.googleapis.com%2Fcss%3Ffamily%3DArchitects%2BDaughter;" edge="1" parent="1" source="u-94jC1h6T2prdQo3YRR-117" target="u-94jC1h6T2prdQo3YRR-118">
          <mxGeometry relative="1" as="geometry" />
        </mxCell>
        <mxCell id="u-94jC1h6T2prdQo3YRR-132" style="edgeStyle=orthogonalEdgeStyle;rounded=0;hachureGap=4;orthogonalLoop=1;jettySize=auto;html=1;entryX=0.5;entryY=0;entryDx=0;entryDy=0;entryPerimeter=0;fontFamily=Architects Daughter;fontSource=https%3A%2F%2Ffonts.googleapis.com%2Fcss%3Ffamily%3DArchitects%2BDaughter;strokeColor=#267DFF;" edge="1" parent="1" source="u-94jC1h6T2prdQo3YRR-116" target="u-94jC1h6T2prdQo3YRR-117">
          <mxGeometry relative="1" as="geometry" />
        </mxCell>
        <mxCell id="u-94jC1h6T2prdQo3YRR-134" style="edgeStyle=orthogonalEdgeStyle;rounded=0;hachureGap=4;orthogonalLoop=1;jettySize=auto;html=1;entryX=0.5;entryY=0;entryDx=0;entryDy=0;entryPerimeter=0;fontFamily=Architects Daughter;fontSource=https%3A%2F%2Ffonts.googleapis.com%2Fcss%3Ffamily%3DArchitects%2BDaughter;strokeColor=#267DFF;" edge="1" parent="1" source="u-94jC1h6T2prdQo3YRR-118" target="u-94jC1h6T2prdQo3YRR-119">
          <mxGeometry relative="1" as="geometry" />
        </mxCell>
        <mxCell id="u-94jC1h6T2prdQo3YRR-136" style="edgeStyle=orthogonalEdgeStyle;rounded=0;hachureGap=4;orthogonalLoop=1;jettySize=auto;html=1;entryX=0.905;entryY=0.5;entryDx=0;entryDy=0;entryPerimeter=0;fontFamily=Architects Daughter;fontSource=https%3A%2F%2Ffonts.googleapis.com%2Fcss%3Ffamily%3DArchitects%2BDaughter;strokeColor=#FF6161;" edge="1" parent="1" source="u-94jC1h6T2prdQo3YRR-103" target="u-94jC1h6T2prdQo3YRR-101">
          <mxGeometry relative="1" as="geometry">
            <Array as="points">
              <mxPoint x="1630" y="330" />
              <mxPoint x="1630" y="170" />
            </Array>
          </mxGeometry>
        </mxCell>
      </root>
    </mxGraphModel>
  </diagram>
</mxfile>
